<?xml version="1.0" encoding="UTF-8"?>
<!DOCTYPE svg PUBLIC "-//W3C//DTD SVG 1.1//EN" "http://www.w3.org/Graphics/SVG/1.1/DTD/svg11.dtd">
<!-- Creator: CorelDRAW X7 -->
<svg xmlns="http://www.w3.org/2000/svg" xml:space="preserve" width="13cm" height="14.5cm" version="1.1" style="shape-rendering:geometricPrecision; text-rendering:geometricPrecision; image-rendering:optimizeQuality; fill-rule:evenodd; clip-rule:evenodd"
viewBox="0 0 13000 14500"
 xmlns:xlink="http://www.w3.org/1999/xlink">
 <defs>
  <style type="text/css">
   <![CDATA[
    .str1 {stroke:#757475;stroke-width:17.64}
    .str0 {stroke:#FFF000;stroke-width:17.64}
    .str2 {stroke:#FFF000;stroke-width:7.62}
    .fil2 {fill:#757475}
    .fil0 {fill:#FFF000}
    .fil1 {fill:#10184A}
   ]]>
  </style>
 </defs>
 <g id="Layer_x0020_1">
  <metadata id="CorelCorpID_0Corel-Layer"/>
  <g id="_2346467250736">
   <path class="fil0 str0" d="M10611 4846c85,0 153,71 153,157 0,87 -68,157 -153,157 -84,0 -153,-70 -153,-157 0,-86 69,-157 153,-157zm0 84c40,0 72,33 72,73 0,40 -32,73 -72,73 -39,0 -71,-33 -71,-73 0,-40 32,-73 71,-73z"/>
   <g>
    <polygon class="fil1 str0" points="6063,7017 7386,7017 7342,12585 7011,14311 6744,14311 6044,12532 "/>
    <polygon class="fil1 str0" points="1073,6372 6570,9524 6553,10315 6707,10506 6706,13481 6723,13912 6728,14108 6737,14305 1273,11163 1240,7567 1067,7148 "/>
    <path class="fil1 str0" d="M2324 8048c783,-457 2047,251 2823,1580 776,1330 771,2778 -12,3235 -404,236 -936,162 -1463,-148 -521,-162 -1087,-646 -1490,-1337 -387,-663 -535,-1362 -444,-1889 -34,-654 162,-1193 586,-1441z"/>
    <path class="fil1 str0" d="M693 9635l90 -75 1128 -651c73,-106 164,-193 273,-257 650,-380 1700,208 2344,1312 645,1104 640,2306 -10,2686 -90,53 -189,87 -292,103l-1332 780 -2201 -3898z"/>
    <path class="fil1 str0" d="M951 9459c628,-366 1643,202 2266,1269 622,1067 618,2229 -10,2596 -318,218 -226,136 -398,249 -558,-99 -1426,-760 -1868,-1517 -449,-771 -675,-1739 -472,-2274 230,-174 307,-221 482,-323z"/>
    <ellipse class="fil1 str0" transform="matrix(0.788893 -0.460488 0.515683 0.883452 1715.23 11633)" rx="1442" ry="2187"/>
    <ellipse class="fil1 str0" transform="matrix(0.788893 -0.460488 0.515683 0.883452 1734.97 11612.2)" rx="1442" ry="2187"/>
    <polygon class="fil1 str0" points="6262,3354 12122,6802 7198,9642 6855,9638 6581,9544 1082,6357 "/>
    <polygon class="fil1 str0" points="12122,6802 12710,7572 12713,11023 7014,14306 7038,13197 7057,10504 7205,10318 7198,9642 "/>
   </g>
   <path class="fil2 str1" d="M4451 4315c-151,-746 622,-1647 2097,-1658 2093,121 2185,1404 2096,1657 71,432 -95,690 -195,837l0 -390c98,-139 157,-281 195,-447 -58,-432 -689,-1260 -2096,-1267 -931,7 -1885,408 -2097,1268z"/>
   <rect class="fil0 str0" x="6530" y="360" width="61.73" height="6228.73"/>
   <path class="fil2 str1" d="M4451 4315c290,1094 1586,1373 2519,1237l-12 -154 547 173 -492 493c-9,-75 -5,-39 -16,-113 -1170,157 -2697,-414 -2546,-1636z"/>
   <path class="fil0 str2" d="M8465 5211c1,-25 12,-57 28,-75 16,-15 41,-26 72,-26 31,0 55,11 69,24 16,14 26,37 26,65 0,32 -13,57 -30,72 -26,21 -69,23 -80,23l-11 0 0 127 14 0c28,0 70,2 99,25 19,16 35,43 35,77 0,32 -13,64 -33,82 -19,18 -49,27 -80,27 -39,0 -70,-13 -89,-32 -22,-22 -36,-59 -38,-90l-185 0c8,80 43,151 89,198 70,71 156,83 234,83 65,0 143,-7 211,-70 57,-51 81,-121 81,-182 0,-44 -14,-94 -38,-126 -21,-30 -57,-53 -91,-65 23,-11 43,-27 60,-51 25,-35 32,-69 32,-109 0,-78 -27,-131 -61,-163 -41,-41 -111,-71 -210,-71 -66,0 -144,14 -203,75 -42,44 -72,115 -79,182l178 0zm834 -258l-183 241c-69,90 -129,180 -129,307 0,71 17,139 70,195 79,86 186,94 259,94 71,0 173,-11 246,-90 52,-57 76,-139 76,-215 0,-98 -41,-155 -70,-185 -35,-36 -97,-77 -198,-77 -35,0 -60,5 -84,13l211 -263 -198 -20zm11 685c-41,0 -74,-15 -97,-37 -30,-28 -41,-62 -41,-100 0,-55 25,-87 41,-102 27,-26 61,-34 97,-34 31,0 66,7 96,33 23,21 42,52 42,99 0,51 -20,85 -42,105 -17,16 -48,36 -96,36zm1066 -266c0,-138 -37,-261 -115,-337 -47,-45 -116,-82 -215,-82 -96,0 -164,36 -212,82 -78,76 -116,199 -116,337 0,137 38,258 116,335 48,47 116,83 212,83 99,0 168,-38 215,-83 78,-77 115,-198 115,-335zm-329 -261c32,0 53,10 75,30 59,58 67,173 67,230 0,62 -11,175 -67,230 -22,21 -43,30 -75,30 -31,0 -52,-9 -74,-30 -56,-55 -67,-168 -67,-230 0,-57 8,-172 67,-230 22,-20 43,-30 74,-30z"/>
  </g>
 </g>
</svg>
