<?xml version="1.0" encoding="UTF-8"?>
<!DOCTYPE svg PUBLIC "-//W3C//DTD SVG 1.1//EN" "http://www.w3.org/Graphics/SVG/1.1/DTD/svg11.dtd">
<!-- Creator: CorelDRAW X7 -->
<svg xmlns="http://www.w3.org/2000/svg" xml:space="preserve" width="8.26772in" height="9.84252in" version="1.1" style="shape-rendering:geometricPrecision; text-rendering:geometricPrecision; image-rendering:optimizeQuality; fill-rule:evenodd; clip-rule:evenodd"
viewBox="0 0 8268 9843"
 xmlns:xlink="http://www.w3.org/1999/xlink"
 data-name="Layer 2">
 <defs>
  <style type="text/css">
   <![CDATA[
    .str13 {stroke:#00A2E9;stroke-width:25.4252}
    .str11 {stroke:#FEFEFE;stroke-width:41.6654}
    .str14 {stroke:#FF6600;stroke-width:41.6654}
    .str18 {stroke:#FF1C1C;stroke-width:6.94488}
    .str12 {stroke:#00A2E9;stroke-width:3}
    .str6 {stroke:#FED385;stroke-width:35.1693;stroke-linecap:round}
    .str5 {stroke:#5F5D5D;stroke-width:25.4252;stroke-linecap:round;stroke-linejoin:round}
    .str3 {stroke:#474443;stroke-width:25.4252;stroke-linecap:round;stroke-linejoin:round}
    .str1 {stroke:#3B632F;stroke-width:25.4252;stroke-linecap:round;stroke-linejoin:round}
    .str4 {stroke:#FED385;stroke-width:25.4252;stroke-linecap:round;stroke-linejoin:round}
    .str8 {stroke:#FF1C1C;stroke-width:25.4252;stroke-linecap:round;stroke-linejoin:round}
    .str10 {stroke:#FF1C1C;stroke-width:25.4252;stroke-linecap:round;stroke-linejoin:round}
    .str16 {stroke:#FF6600;stroke-width:25.4252;stroke-linecap:round;stroke-linejoin:round}
    .str0 {stroke:#3B632F;stroke-width:26.4567;stroke-linecap:round;stroke-linejoin:round}
    .str7 {stroke:#FF1C1C;stroke-width:26.4567;stroke-linecap:round;stroke-linejoin:round}
    .str15 {stroke:#FF6600;stroke-width:26.4567;stroke-linecap:round;stroke-linejoin:round}
    .str2 {stroke:#3B632F;stroke-width:16.4685;stroke-linecap:round;stroke-linejoin:round}
    .str9 {stroke:#FF1C1C;stroke-width:16.4685;stroke-linecap:round;stroke-linejoin:round}
    .str17 {stroke:#FF6600;stroke-width:16.4685;stroke-linecap:round;stroke-linejoin:round}
    .fil5 {fill:none}
    .fil14 {fill:#FEFEFE}
    .fil11 {fill:#8B8B8C}
    .fil9 {fill:#757475}
    .fil13 {fill:#332C2B}
    .fil0 {fill:#EFEFF3}
    .fil15 {fill:#A8A9D4}
    .fil6 {fill:#A3B552}
    .fil18 {fill:#7778A2}
    .fil17 {fill:#575DA6}
    .fil3 {fill:#456E3E}
    .fil32 {fill:#232223}
    .fil19 {fill:#343A85}
    .fil33 {fill:#343A85}
    .fil30 {fill:#00A2E9}
    .fil4 {fill:#009B4C}
    .fil34 {fill:#2E3B64}
    .fil16 {fill:#2F318B}
    .fil26 {fill:black}
    .fil29 {fill:#151538}
    .fil2 {fill:#18420B}
    .fil23 {fill:#3541A6}
    .fil20 {fill:#3541A6}
    .fil24 {fill:#5661C7}
    .fil21 {fill:#5661C7}
    .fil1 {fill:#609151}
    .fil31 {fill:#9FB7CF}
    .fil25 {fill:#A2C1E0}
    .fil27 {fill:#D37C59}
    .fil12 {fill:#D4B968}
    .fil28 {fill:#DC8E6C}
    .fil22 {fill:#DE8E68}
    .fil7 {fill:#F3F3F3}
    .fil10 {fill:#FB836D}
    .fil35 {fill:#FF1C1C}
    .fil8 {fill:white}
   ]]>
  </style>
 </defs>
 <g id="Layer_x0020_1">
  <metadata id="CorelCorpID_0Corel-Layer"/>
  <path class="fil0" d="M16902 -10391c966,137 2178,656 2398,1422 220,767 -551,1779 -1285,2588 -734,811 -1430,1420 -2283,1831 -853,408 -1860,621 -2539,236 -676,-383 -1021,-1363 -1422,-2226 -402,-864 -863,-1614 -645,-2140 219,-523 1115,-823 1790,-1011 674,-188 1124,-268 1711,-428 585,-163 1307,-409 2275,-272z"/>
  <path class="fil1" d="M15735 -6274c0,-185 -398,-634 -717,-634 -245,0 -249,130 -487,130 -368,0 -641,-615 -1349,-615 -753,0 -1738,707 -1738,1262 0,794 4291,985 4291,-143z"/>
  <path class="fil2" d="M17634 -3553c8,-863 22,-2250 22,-2455 0,-301 -447,-1203 -1230,-1203 -857,0 -1280,983 -1841,983 -514,0 -555,-260 -1191,-260 -415,0 -1268,532 -1268,1075l568 1860 4940 0z"/>
  <polygon class="fil3" points="11971,-7852 10923,-3553 13018,-3553 "/>
  <polygon class="fil4" points="11152,-7852 10104,-3179 12199,-3179 "/>
  <line class="fil5 str0" x1="11157" y1="-3199" x2="11157" y2= "-7398" />
  <line class="fil5 str0" x1="11157" y1="-6013" x2="11385" y2= "-6261" />
  <line class="fil5 str0" x1="11157" y1="-4829" x2="11499" y2= "-5200" />
  <line class="fil5 str0" x1="11157" y1="-3593" x2="11689" y2= "-4171" />
  <line class="fil5 str0" x1="11157" y1="-6013" x2="10930" y2= "-6261" />
  <line class="fil5 str0" x1="11157" y1="-4829" x2="10816" y2= "-5200" />
  <line class="fil5 str0" x1="11157" y1="-3593" x2="10626" y2= "-4171" />
  <path class="fil6" d="M11901 -4529l0 0c317,0 573,257 573,573l0 523c0,316 -256,573 -573,573l0 0c-316,0 -572,-257 -572,-573l0 -523c0,-316 256,-573 572,-573z"/>
  <line class="fil5 str1" x1="11901" y1="-2425" x2="11901" y2= "-4008" />
  <path class="fil5 str1" d="M11901 -3335c314,0 314,-189 314,-474"/>
  <path class="fil5 str1" d="M11901 -3623c-217,0 -217,-131 -217,-329"/>
  <path class="fil4" d="M19469 -3553l0 -1541c-1,-379 -308,-687 -688,-688l0 0c-37,0 -74,3 -110,9l0 -1774c0,0 0,0 0,0 0,-260 -211,-471 -471,-471l0 0c-260,0 -471,211 -471,471l0 380c-71,-24 -145,-37 -220,-37l0 0c-380,2 -687,309 -688,688l0 1265 -300 0c-259,0 -469,210 -470,470l0 1094c0,46 7,91 20,134l3398 0z"/>
  <path class="fil5 str1" d="M18181 -4474c775,0 775,-347 775,-872"/>
  <path class="fil5 str1" d="M18182 -4012c-427,0 -427,-190 -427,-479"/>
  <line class="fil5 str1" x1="18181" y1="-3553" x2="18181" y2= "-7662" />
  <line class="fil5 str1" x1="18181" y1="-5346" x2="17756" y2= "-5771" />
  <line class="fil5 str1" x1="18181" y1="-6223" x2="18438" y2= "-6480" />
  <path class="fil7" d="M16068 -7852c-41,-19 -86,-29 -131,-29 -174,0 -316,142 -316,317 0,4 0,9 0,12l447 -300z"/>
  <path class="fil8" d="M12187 -8473c-8,-32 -12,-63 -12,-95 0,-221 179,-400 400,-400 140,0 270,74 342,194 41,-19 85,-29 130,-29 175,0 317,142 317,317 0,0 0,0 0,0 0,4 0,9 0,13l-1177 0z"/>
  <path class="fil9" d="M17539 -2822c-425,0 -770,182 -770,406l1541 0c0,-224 -345,-406 -771,-406z"/>
  <path class="fil10" d="M13971 -2222c-106,0 -192,74 -192,166l385 0c0,-92 -86,-166 -193,-166z"/>
  <path class="fil11" d="M16769 -3106c-107,0 -193,110 -193,246l385 0c0,-136 -86,-246 -192,-246z"/>
  <path class="fil9" d="M10739 -2496c-169,0 -306,55 -306,123l612 0c0,-68 -137,-123 -306,-123z"/>
  <path class="fil11" d="M18438 -2496c-169,0 -306,55 -306,123l612 0c0,-68 -137,-123 -306,-123z"/>
  <path class="fil6" d="M17181 -4426l0 0c205,0 371,166 371,371l0 339c0,205 -166,371 -371,371l0 0c-204,0 -371,-166 -371,-371l0 -339c0,-205 167,-371 371,-371z"/>
  <line class="fil5 str2" x1="17181" y1="-3063" x2="17181" y2= "-4089" />
  <path class="fil5 str2" d="M17181 -3653c203,0 203,-122 203,-306"/>
  <path class="fil5 str2" d="M17181 -3839c-140,0 -140,-85 -140,-213"/>
  <line class="fil5 str3" x1="12524" y1="-2724" x2="13209" y2= "-2724" />
  <line class="fil5 str4" x1="15373" y1="-3179" x2="15828" y2= "-3179" />
  <line class="fil5 str4" x1="15030" y1="-3063" x2="15485" y2= "-3063" />
  <line class="fil5 str3" x1="10705" y1="-2969" x2="11160" y2= "-2969" />
  <line class="fil5 str5" x1="16051" y1="-2287" x2="16691" y2= "-2287" />
  <path class="fil12" d="M13806 -8756c-154,-2 -205,240 -206,337 -2,164 166,843 330,845 165,1 346,-665 346,-742 1,-77 -199,-437 -470,-440z"/>
  <path class="fil13" d="M14524 -9160l2323 479c161,34 265,191 231,351l-932 4520c-33,160 -190,264 -351,231l-2323 -480c-161,-33 -265,-190 -231,-351l932 -4519c33,-161 190,-264 351,-231z"/>
  <path class="fil14" d="M14607 -9048l2142 445c148,30 242,180 209,335l-932 4337c-33,155 -180,255 -328,224l-2142 -444c-149,-31 -242,-181 -209,-335l932 -4338c33,-154 180,-255 328,-224z"/>
  <g>
   <path class="fil13" d="M16315 -8789l-31 149c-14,66 -72,113 -140,113 -9,0 -18,-1 -27,-3l-1001 -207c-66,-14 -114,-72 -113,-140 0,-9 1,-18 3,-26l31 -150 1278 264zm0 0l0 0 0 0z"/>
  </g>
  <path class="fil12" d="M13610 -7451c-203,-2 -340,152 -342,316 -5,542 300,990 436,991 290,3 398,-151 399,-257 1,-78 -29,-1045 -493,-1050z"/>
  <g>
   <path class="fil12" d="M13490 -6030c57,59 498,537 494,866 -2,223 -52,396 -458,392 -194,-2 -728,-771 -725,-1081 1,-174 112,-579 412,-577 87,1 279,158 308,197 29,31 60,61 93,88 -12,63 -83,393 -83,393l-41 -278zm0 0l0 0 0 0z"/>
  </g>
  <path class="fil5 str6" d="M13631 -5869c0,0 -136,-176 -223,-254"/>
  <path class="fil12" d="M13398 -4084c-29,77 -56,825 27,1242 -62,299 -303,1275 -303,1275l2100 20 222 -849c0,0 1307,-1120 1434,-1322 128,-202 435,-1385 432,-1496 -3,-77 -1401,-1281 -1439,-1330 -38,-49 -725,626 399,1421 -11,97 -14,524 -14,524 0,0 -790,263 -871,321 -80,57 -237,467 -266,559 -107,-22 -1721,-365 -1721,-365z"/>
  <path class="fil5 str6" d="M14949 -3236c28,-100 159,-461 192,-547"/>
  <path class="fil8" d="M18203 -9001c8,-31 12,-63 12,-95 0,-220 -179,-399 -400,-399 -140,0 -270,73 -342,193 -41,-18 -86,-28 -131,-28 -174,0 -316,142 -316,316 0,1 0,1 0,1 0,4 0,8 0,12l1177 0z"/>
  <path class="fil0" d="M18207 -8998c8,-31 11,-63 11,-95 0,-72 -18,-139 -51,-197 -31,27 -57,58 -79,94 -41,-19 -85,-28 -130,-28 -144,0 -265,95 -304,226l553 0z"/>
  <path class="fil8" d="M18700 -8921c6,-27 9,-54 9,-81 0,-188 -152,-341 -340,-341 -120,0 -231,63 -292,165 -35,-16 -73,-24 -112,-24 -149,0 -270,121 -270,270 0,0 0,0 0,0 0,4 0,7 0,11l1005 0z"/>
  <path class="fil0" d="M5862 325c813,116 1834,553 2019,1198 186,647 -464,1499 -1082,2181 -618,683 -1205,1196 -1923,1541 -718,345 -1567,524 -2139,199 -569,-322 -859,-1147 -1197,-1874 -340,-729 -727,-1360 -544,-1803 184,-441 940,-693 1508,-852 568,-159 947,-225 1441,-361 493,-137 1101,-344 1917,-229z"/>
  <path class="fil15" d="M4878 3793c0,-156 -335,-534 -604,-534 -206,0 -209,110 -410,110 -310,0 -540,-518 -1136,-518 -635,0 -1464,595 -1464,1063 0,669 3614,830 3614,-121z"/>
  <path class="fil16" d="M6478 6086c7,-727 19,-1896 19,-2068 0,-254 -377,-1014 -1036,-1014 -722,0 -1079,829 -1551,829 -433,0 -468,-220 -1004,-220 -349,0 -1068,448 -1068,906l479 1566 4161 1z"/>
  <polygon class="fil17" points="1708,2464 825,6086 2590,6086 "/>
  <polygon class="fil18" points="1018,2464 136,6401 1900,6401 "/>
  <line class="fil5 str7" x1="1023" y1="6383" x2="1023" y2= "2847" />
  <line class="fil5 str7" x1="1023" y1="4013" x2="1214" y2= "3805" />
  <line class="fil5 str7" x1="1023" y1="5011" x2="1311" y2= "4698" />
  <line class="fil5 str7" x1="1023" y1="6052" x2="1471" y2= "5565" />
  <line class="fil5 str7" x1="1023" y1="4013" x2="831" y2= "3805" />
  <line class="fil5 str7" x1="1023" y1="5011" x2="735" y2= "4698" />
  <line class="fil5 str7" x1="1023" y1="6052" x2="574" y2= "5565" />
  <path class="fil19" d="M1649 5263l0 0c267,0 483,217 483,483l0 440c0,267 -216,483 -483,483l0 0c-266,0 -482,-216 -482,-483l0 -440c0,-266 216,-483 482,-483z"/>
  <line class="fil5 str8" x1="1649" y1="7036" x2="1649" y2= "5702" />
  <path class="fil5 str8" d="M1649 6269c264,0 264,-159 264,-399"/>
  <path class="fil5 str8" d="M1649 6026c-183,0 -183,-110 -183,-277"/>
  <path class="fil18" d="M8024 6086l0 -1299c-1,-319 -260,-578 -579,-579l0 0c-32,0 -63,3 -94,7l0 -1494c0,0 0,0 0,0 0,-219 -177,-396 -396,-396l0 0c-219,0 -397,177 -397,396l0 320c-59,-20 -122,-30 -185,-30l0 0c-320,0 -579,259 -580,579l0 1065 -252 0c-218,1 -395,178 -396,396l0 922c0,38 6,76 17,113l2862 0z"/>
  <path class="fil5 str8" d="M6939 5310c653,0 653,-292 653,-734"/>
  <path class="fil5 str8" d="M6940 5699c-360,0 -360,-161 -360,-404"/>
  <line class="fil5 str8" x1="6939" y1="6086" x2="6939" y2= "2624" />
  <line class="fil5 str8" x1="6939" y1="4576" x2="6581" y2= "4217" />
  <line class="fil5 str8" x1="6939" y1="3837" x2="7156" y2= "3620" />
  <path class="fil8" d="M1890 1941c-7,-26 -10,-53 -10,-80 0,-186 151,-337 336,-337 118,0 228,62 288,163 35,-15 73,-23 111,-23 147,0 266,119 266,266 0,0 0,0 0,0 0,4 0,8 0,11l-991 0z"/>
  <path class="fil20" d="M6398 6702c-358,0 -648,153 -648,342l1297 0c0,-189 -290,-342 -649,-342z"/>
  <path class="fil21" d="M5749 6462c-89,0 -162,93 -162,207l324 0c0,-114 -72,-207 -162,-207z"/>
  <path class="fil21" d="M670 6976c-142,0 -258,47 -258,104l516 0c0,-57 -115,-104 -258,-104z"/>
  <path class="fil21" d="M7156 6976c-143,0 -258,47 -258,104l515 0c0,-57 -115,-104 -257,-104z"/>
  <path class="fil19" d="M6097 5350l0 0c172,0 312,140 312,313l0 285c0,173 -140,313 -312,313l0 0c-173,0 -313,-140 -313,-313l0 -285c0,-173 140,-313 313,-313z"/>
  <line class="fil5 str9" x1="6097" y1="6498" x2="6097" y2= "5634" />
  <path class="fil5 str9" d="M6097 6002c171,0 171,-103 171,-259"/>
  <path class="fil5 str9" d="M6097 5844c-118,0 -118,-71 -118,-179"/>
  <line class="fil5 str10" x1="2173" y1="6784" x2="2751" y2= "6784" />
  <line class="fil5 str10" x1="4574" y1="6401" x2="4957" y2= "6401" />
  <line class="fil5 str10" x1="4285" y1="6498" x2="4668" y2= "6498" />
  <line class="fil5 str10" x1="642" y1="6577" x2="1025" y2= "6577" />
  <line class="fil5 str10" x1="5038" y1="7152" x2="5577" y2= "7152" />
  <path class="fil8" d="M6958 1496c6,-26 9,-53 9,-80 0,-185 -150,-336 -336,-336 -118,0 -228,62 -288,163 -35,-16 -73,-24 -110,-24 -148,0 -267,120 -267,267 0,0 0,0 0,0 0,4 0,7 0,10l992 0z"/>
  <path class="fil0" d="M6961 1499c6,-26 9,-53 9,-80 0,-60 -15,-117 -43,-166 -26,22 -48,49 -66,79 -35,-16 -72,-24 -110,-24 -121,0 -223,81 -256,191l466 0z"/>
  <path class="fil8" d="M7376 1563c5,-22 8,-45 8,-68 0,-158 -129,-287 -287,-287 -101,0 -194,53 -246,139 -29,-13 -61,-20 -94,-20 -125,0 -227,102 -227,227 0,0 0,1 0,1 0,3 0,6 0,8l846 0z"/>
  <line class="fil5 str11" x1="3580" y1="5105" x2="3357" y2= "5381" />
  <rect class="fil22" x="2313" y="8596" width="189" height="160"/>
  <rect class="fil22" x="2898" y="8621" width="189" height="160"/>
  <path class="fil23" d="M2293 5928l0 2677 221 0 255 -1432c0,0 35,-775 -476,-1245z"/>
  <path class="fil24" d="M3023 5876c6,77 83,1481 83,1481l0 1279 -227 25 -147 -1360 -439 -1373c66,-36 553,-105 730,-52z"/>
  <path class="fil25" d="M2618 4699c436,0 457,1110 405,1177 -52,66 -673,112 -730,52 -57,-59 -219,-1229 325,-1229z"/>
  <ellipse class="fil22" transform="matrix(1.25939 -1.54544 1.54544 1.25939 3428.53 5402.56)" rx="81" ry="36"/>
  <polygon class="fil26" points="2880,8756 2880,8916 3330,8916 3330,8858 3096,8756 "/>
  <polygon class="fil26" points="2307,8731 2307,8891 2756,8891 2756,8833 2522,8731 "/>
  <path class="fil27" d="M2650 4795c0,37 -171,41 -171,0l0 -364 171 0 0 364z"/>
  <ellipse class="fil28" cx="2644" cy="4326" rx="179" ry="273"/>
  <path class="fil29" d="M2333 4213c0,-84 36,-137 66,-154 58,-33 82,-18 140,-44 63,-28 116,-108 190,-108 69,0 62,39 109,51 27,7 183,-29 183,72 0,155 -172,168 -212,188 -6,-18 -13,-36 -21,-53 -32,32 -145,55 -164,62 -42,18 -63,84 -63,128 0,44 -39,44 -49,44 -91,0 -179,-59 -179,-186z"/>
  <circle class="fil28" cx="2482" cy="4372" r="59"/>
  <path class="fil30 str12" d="M2053 4738l0 0c95,0 172,77 172,173l0 817c0,95 -77,172 -172,172l0 0c-96,0 -173,-77 -173,-172l0 -817c0,-96 77,-173 173,-173z"/>
  <ellipse class="fil5 str13" cx="2321" cy="5190" rx="417" ry="452"/>
  <path class="fil22" d="M2687 5212c9,33 48,204 41,280 35,-4 524,-102 699,-94 26,14 45,94 26,99 -19,5 -778,328 -901,240 -124,-88 -101,-504 -93,-523 8,-19 228,-2 228,-2z"/>
  <path class="fil31" d="M2620 4843c162,-3 126,370 99,410 -32,48 -284,45 -309,-3 -40,-78 -1,-403 210,-407z"/>
  <path class="fil16 str14" d="M17652 -558c966,137 2178,657 2398,1422 220,768 -551,1779 -1285,2588 -734,812 -1430,1421 -2283,1831 -853,409 -1860,621 -2539,236 -676,-383 -1021,-1362 -1422,-2225 -402,-865 -863,-1615 -645,-2140 219,-524 1115,-823 1790,-1012 674,-188 1124,-268 1711,-428 585,-163 1307,-409 2275,-272z"/>
  <path class="fil16 str14" d="M16485 3559c0,-185 -398,-634 -717,-634 -245,0 -249,130 -487,130 -368,0 -641,-615 -1349,-615 -753,0 -1738,707 -1738,1262 0,795 4291,985 4291,-143z"/>
  <path class="fil16 str14" d="M18384 6281c8,-864 22,-2250 22,-2456 0,-301 -447,-1203 -1230,-1203 -857,0 -1280,984 -1841,984 -514,0 -555,-261 -1191,-261 -415,0 -1268,532 -1268,1075l568 1860 4940 1z"/>
  <polygon class="fil16 str14" points="12721,1981 11673,6281 13768,6281 "/>
  <polygon class="fil16 str14" points="11902,1981 10854,6655 12949,6655 "/>
  <line class="fil5 str15" x1="11907" y1="6634" x2="11907" y2= "2435" />
  <line class="fil5 str15" x1="11907" y1="3820" x2="12135" y2= "3573" />
  <line class="fil5 str15" x1="11907" y1="5005" x2="12249" y2= "4633" />
  <line class="fil5 str15" x1="11907" y1="6241" x2="12439" y2= "5663" />
  <line class="fil5 str15" x1="11907" y1="3820" x2="11680" y2= "3573" />
  <line class="fil5 str15" x1="11907" y1="5005" x2="11566" y2= "4633" />
  <line class="fil5 str15" x1="11907" y1="6241" x2="11376" y2= "5663" />
  <path class="fil16 str14" d="M12651 5304l0 0c317,0 573,257 573,573l0 523c0,316 -256,573 -573,573l0 0c-316,0 -572,-257 -572,-573l0 -523c0,-316 256,-573 572,-573z"/>
  <line class="fil5 str16" x1="12651" y1="7408" x2="12651" y2= "5825" />
  <path class="fil5 str16" d="M12651 6498c314,0 314,-188 314,-474"/>
  <path class="fil5 str16" d="M12651 6210c-217,0 -217,-131 -217,-329"/>
  <path class="fil16 str14" d="M20219 6281l0 -1542c-1,-379 -308,-687 -688,-688l0 0c-37,0 -74,3 -110,9l0 -1773c0,0 0,0 0,0 0,-260 -211,-471 -471,-471l0 0c-260,0 -471,211 -471,471l0 379c-71,-24 -145,-36 -220,-36l0 0c-380,1 -687,308 -688,688l0 1264 -300 0c-259,1 -469,211 -470,470l1 1095c-1,45 6,90 19,134l3398 0z"/>
  <path class="fil5 str16" d="M18931 5359c775,0 775,-347 775,-871"/>
  <path class="fil5 str16" d="M18932 5822c-427,0 -427,-191 -427,-480"/>
  <line class="fil5 str16" x1="18931" y1="6281" x2="18931" y2= "2171" />
  <line class="fil5 str16" x1="18931" y1="4488" x2="18506" y2= "4063" />
  <line class="fil5 str16" x1="18931" y1="3611" x2="19188" y2= "3353" />
  <path class="fil7" d="M16818 1981c-41,-19 -86,-28 -131,-28 -174,0 -316,142 -316,316 0,5 0,9 0,13l447 -301z"/>
  <path class="fil16" d="M18289 7012c-425,0 -770,181 -770,406l1541 0c0,-225 -345,-406 -771,-406z"/>
  <path class="fil10" d="M14721 7611c-106,0 -192,75 -192,166l385 0c0,-91 -86,-166 -193,-166z"/>
  <path class="fil16" d="M17519 6727c-107,0 -193,110 -193,246l385 0c0,-136 -86,-246 -192,-246z"/>
  <path class="fil16" d="M11489 7338c-169,0 -306,55 -306,122l612 0c0,-67 -137,-122 -306,-122z"/>
  <path class="fil16" d="M19188 7338c-169,0 -306,55 -306,122l612 0c0,-67 -137,-122 -306,-122z"/>
  <path class="fil16 str14" d="M17931 5408l0 0c205,0 371,166 371,371l0 338c0,205 -166,371 -371,371l0 0c-204,0 -371,-166 -371,-371l0 -338c0,-205 167,-371 371,-371z"/>
  <line class="fil5 str17" x1="17931" y1="6770" x2="17931" y2= "5745" />
  <path class="fil5 str17" d="M17931 6181c203,0 203,-122 203,-307"/>
  <path class="fil5 str17" d="M17931 5994c-140,0 -140,-85 -140,-213"/>
  <line class="fil5 str3" x1="13274" y1="7110" x2="13959" y2= "7110" />
  <line class="fil5 str4" x1="16123" y1="6655" x2="16578" y2= "6655" />
  <line class="fil5 str4" x1="15780" y1="6770" x2="16235" y2= "6770" />
  <line class="fil5 str3" x1="11455" y1="6864" x2="11910" y2= "6864" />
  <line class="fil5 str5" x1="16801" y1="7546" x2="17441" y2= "7546" />
  <path class="fil12" d="M14556 1077c-154,-1 -205,240 -206,337 -2,164 166,844 330,845 165,2 346,-665 346,-742 1,-77 -199,-437 -470,-440z"/>
  <path class="fil32" d="M15274 673l2323 480c161,33 265,190 231,351l-932 4519c-33,161 -190,264 -351,231l-2323 -479c-161,-34 -265,-191 -231,-352l932 -4519c33,-160 190,-264 351,-231z"/>
  <path class="fil14" d="M15357 785l2142 445c148,31 242,181 209,335l-932 4338c-33,154 -180,254 -328,223l-2142 -444c-149,-31 -242,-181 -209,-335l932 -4338c33,-154 180,-254 328,-224z"/>
  <g>
   <path class="fil32" d="M17065 1044l-31 150c-14,66 -72,113 -140,112 -9,0 -18,-1 -27,-3l-1001 -206c-66,-14 -114,-73 -113,-140 0,-9 1,-18 3,-27l31 -150 1278 264zm0 0l0 0 0 0z"/>
  </g>
  <path class="fil12" d="M14360 2382c-203,-1 -340,152 -342,317 -5,541 300,989 436,991 290,3 398,-151 399,-258 1,-78 -29,-1045 -493,-1050z"/>
  <g>
   <path class="fil12" d="M14240 3803c57,59 498,537 494,866 -2,223 -52,397 -458,393 -194,-2 -728,-772 -725,-1082 1,-174 112,-579 412,-576 87,1 279,157 308,196 29,32 60,61 93,88 -12,63 -83,394 -83,394l-41 -279zm0 0l0 0 0 0z"/>
  </g>
  <path class="fil5 str6" d="M14381 3964c0,0 -136,-175 -223,-253"/>
  <path class="fil12" d="M14148 5749c-29,78 -56,825 27,1242 -62,300 -303,1275 -303,1275l2100 21 222 -850c0,0 1307,-1120 1434,-1322 128,-202 435,-1384 432,-1496 -3,-77 -1401,-1281 -1439,-1330 -38,-49 -725,626 399,1422 -11,96 -14,523 -14,523 0,0 -790,263 -871,321 -80,58 -237,467 -266,559 -107,-21 -1721,-365 -1721,-365z"/>
  <path class="fil33" d="M4771 1481l-8 66 117 16c3,-22 12,-65 7,-81 -15,-6 -76,-12 -95,-15 -13,-2 -19,0 -21,14z"/>
  <path class="fil5 str6" d="M15699 6598c28,-101 159,-462 192,-548"/>
  <path class="fil20" d="M4128 1572c52,123 -7,98 199,125 52,7 49,-8 76,-47 9,-13 19,-26 28,-38 40,6 111,20 147,12 41,-8 69,-25 117,-29 61,-4 157,19 185,19 15,0 14,-12 16,-26 5,-41 -4,-33 -44,-38 -149,-20 -136,-20 -275,-66 -225,-74 -319,-86 -555,-73 -145,8 -134,11 -283,-8 -35,-5 -49,-17 -53,21 -6,40 2,32 41,38 47,6 107,10 149,25 46,15 68,39 105,58 34,17 106,22 147,27z"/>
  <path class="fil33" d="M4132 1568l-94 -12c-41,62 -76,263 -89,351 -4,22 -7,44 -10,67 -2,12 -3,19 9,23 10,3 25,4 30,-2 5,-6 19,-110 22,-128 12,-64 35,-165 74,-217 25,-32 61,-47 58,-82z"/>
  <path class="fil33" d="M4509 2071c12,-19 25,-198 27,-234 3,-57 7,-167 -8,-215l-94 -12c-8,22 4,44 12,55 63,84 40,269 27,371 -2,11 -6,24 2,31 8,6 26,6 34,4z"/>
  <path class="fil34" d="M5281 1502l1 -4c-25,-9 -73,-18 -101,-24 -64,-14 -148,-30 -213,-37 -40,-5 -64,-1 -100,2l-4 29c17,12 75,28 98,32 46,8 294,10 319,2z"/>
  <path class="fil34" d="M3342 1232l-1 3c22,16 263,77 309,82 23,2 83,1 102,-5l5 -29c-34,-12 -56,-22 -95,-29 -62,-9 -151,-16 -215,-19 -30,-1 -78,-6 -105,-3z"/>
  <path class="fil34" d="M3815 1294l-5 30c114,47 190,34 315,37 24,0 90,7 103,-7 -6,-6 -39,-11 -47,-13 -108,-25 -263,-62 -366,-47z"/>
  <path class="fil34" d="M4395 1377c1,7 3,8 17,14 16,6 59,15 77,20 122,30 196,63 317,47l4 -30c-87,-37 -211,-42 -309,-47 -33,-2 -75,-6 -106,-4z"/>
  <path class="fil33" d="M3718 1338l-9 64 117 15 8 -54c4,-36 7,-28 -98,-42 -14,-1 -17,3 -18,17z"/>
  <path class="fil34" d="M4865 1417l-47 -6c-14,9 -13,32 -17,60l64 8c4,-38 12,-47 0,-62z"/>
  <path class="fil34" d="M3812 1272l-47 -7c-11,8 -10,7 -12,25 -2,11 -3,23 -5,35l64 9c4,-30 11,-49 0,-62z"/>
  <circle class="fil35 str18" cx="4201" cy="1630" r="18"/>
 </g>
</svg>
